<svg xmlns="http://www.w3.org/2000svg" viewBox="0 0 219.04 218.97"><defs><style>.cls-1{fill:#fff;}</style></defs><title>benefits</title><g id="Layer_2" data-name="Layer 2"><g id="Layer_1-2" data-name="Layer 1"><path class="cls-1" d="M160.94,12.79a109.49,109.49,0,1,0,45.31,148.08A109.63,109.63,0,0,0,160.94,12.79Zm-100.43,189a104.5,104.5,0,1,1,141.32-43.24A103.81,103.81,0,0,1,60.51,201.76Z"/><path class="cls-1" d="M192.86,113.29c1.35.34,2.69.71,4,1.11l3.13,1,.1-3.27a91.45,91.45,0,0,0-15.66-53.78,89.82,89.82,0,0,0-41.89-33.44l3.38-9.79a2.5,2.5,0,0,0-4.73-1.63l-3.36,9.74a89.88,89.88,0,0,0-56-.28A91.45,91.45,0,0,0,36.38,55.56l-2,2.72,3.19,1.12c1.4.49,2.78,1,4.15,1.59a83.23,83.23,0,0,0,6.89,105.45,21.64,21.64,0,0,0,31.06,21.34c.17-.08.32-.18.48-.26a83.36,83.36,0,0,0,112.71-74.23ZM85.13,184a21.55,21.55,0,0,0,5.54-8.62l24.14-70a85.34,85.34,0,0,1,20.71,12l1.17.92,1.37-.59a85.67,85.67,0,0,1,49.84-5.49A78.37,78.37,0,0,1,85.13,184ZM136.22,27.92l1.16.38c1.2.41,2.38.85,3.54,1.31a85.22,85.22,0,0,1,54.23,79.1c-.74-.2-1.49-.37-2.24-.54s-1.66-.38-2.49-.56-1.7-.36-2.55-.51a90.72,90.72,0,0,0-50.45,5.43,90.33,90.33,0,0,0-21-11.9c-1.43-.58-2.87-1.13-4.33-1.63l-.35-.11a90.72,90.72,0,0,0-24.46-4.73A90.6,90.6,0,0,0,49.54,59c-.78-.39-1.56-.75-2.35-1.11s-1.56-.71-2.35-1-1.6-.69-2.41-1A85.25,85.25,0,0,1,136.22,27.92ZM64.74,184.06a16.63,16.63,0,0,1-11.18-17,16.73,16.73,0,0,1,.81-4.05l4.87-10.23a2.5,2.5,0,1,0-4.51-2.15L50,160.52a78.36,78.36,0,0,1-3.65-97.45A85.58,85.58,0,0,1,83.64,97.83L84.33,99l1.39.05a85.71,85.71,0,0,1,24.4,4.53L85.94,173.73a16.56,16.56,0,0,1-8.46,9.55l-.05,0A16.55,16.55,0,0,1,64.74,184.06Z"/><path class="cls-1" d="M87,84.59a2.5,2.5,0,0,0,2.86-2.08C93.07,61.74,120,39.17,127.9,36.67a2.49,2.49,0,0,0,1.66-3c0-.05,0-.11,0-.16a2.49,2.49,0,0,0-3.14-1.62,17.23,17.23,0,0,0-1.69.66c-11.54,5.09-36.5,28-39.82,49.18A2.5,2.5,0,0,0,87,84.59Z"/><path class="cls-1" d="M140.76,100.49a2.5,2.5,0,1,0,4.33,2.5c10.78-18.69,5.59-52.5-.24-63.49-.26-.49-.53-1-.79-1.36a2.5,2.5,0,0,0-3.46-.71l-.06,0a2.5,2.5,0,0,0-.65,3.42C144.44,47.78,151.26,82.28,140.76,100.49Z"/></g></g></svg>