<svg xmlns="http://www.w3.org/2000svg" viewBox="0 0 219.11 219.11"><defs><style>.cls-1{fill:#fff;}</style></defs><title>capabilities</title><g id="Layer_2" data-name="Layer 2"><g id="Layer_1-2" data-name="Layer 1"><path class="cls-1" d="M214.26,77.52A109.5,109.5,0,0,0,12.86,58.16a109.59,109.59,0,0,0,96.56,160.94,109.88,109.88,0,0,0,32.17-4.84A109.5,109.5,0,0,0,214.26,77.52Zm-74.14,132a104.5,104.5,0,0,1-122.85-149A104.5,104.5,0,0,1,209.48,79a104.5,104.5,0,0,1-69.36,130.5Z"/><path class="cls-1" d="M192.94,112.28a83.63,83.63,0,0,0-26.54-63.78A24.94,24.94,0,0,0,133.6,27.78a25.54,25.54,0,0,0-2.74,1.13,82.35,82.35,0,0,0-19.23-2.75c-2.09-4.77-4.21-8.22-6.15-9.07l-.82-.36-.86.24A29.49,29.49,0,0,0,88,29c-.94.25-1.87.5-2.8.78A82.86,82.86,0,0,0,35.9,70.41c-.32.61-.61,1.22-.91,1.83l-6.22-7.81-2.59,3.24c-3.87,4.81-11.08,13.76-8.75,21.78.86,3,4.22,8.9,8.82,16.19a83.6,83.6,0,0,0,34.93,71.84,24.89,24.89,0,0,0,22.79,15A25.2,25.2,0,0,0,92,191.13l0,0a83.55,83.55,0,0,0,91.13-42.42c.42-.8.81-1.61,1.21-2.41.86.47,1.74.93,2.66,1.38l1.77.88,1.26-1.53c6.58-8,8-22,3.42-33.4C193.39,113.28,193.18,112.82,192.94,112.28Zm-6.44,29.44q-1.13-.62-2.19-1.25t-2.15-1.33c-9.34-6-13.85-12.15-15.51-14.85-1.29-2.1-9.32-17.66-17.05-32.75l12.88-26c10.35,18.23,21.75,40,25.43,47.74.44.94.78,1.69,1,2.19a31.39,31.39,0,0,1,1.06,3.11,32.57,32.57,0,0,1,1.25,8.06,28.4,28.4,0,0,1-3.78,15.56Zm-7.71,4.63a78.49,78.49,0,0,1-79.53,40.93,24.76,24.76,0,0,0,7.19-8.7l40.39-81.46c6.8,13.26,14.22,27.64,15.56,29.8,1.89,3.07,7.06,10.13,17.69,16.83C179.67,144.62,179.24,145.49,178.79,146.35Zm-103.62,39a19.77,19.77,0,0,1-7.64-6.71,20.19,20.19,0,0,1-2.24-4.42c0-.14-.11-.27-.16-.41a20.11,20.11,0,0,1,.9-15c0-.08.07-.16.11-.24l1.14-2.29L78.1,134.45,79.33,132l1.23-2.47L104.2,81.82l1.15-2.33,1.15-2.33,9.69-19.54,1.72-3.48,1.69-3.4,4.06-8.19a19.78,19.78,0,0,1,7.77-8.32,20.32,20.32,0,0,1,3.34-1.55l.43-.17a20.37,20.37,0,0,1,4-.91,19.87,19.87,0,0,1,20.39,11.21,20.11,20.11,0,0,1,2,8,20.77,20.77,0,0,1-2.06,9.47v0L146.77,86l-1.38,2.79L144,91.58l-42,84.77A19.8,19.8,0,0,1,91.7,185.9c-.42.17-.83.35-1.27.5a20.38,20.38,0,0,1-3.54.84A19.77,19.77,0,0,1,75.17,185.39Zm-43.9-72C41.2,128.49,54,146.47,61.46,156.78a24.73,24.73,0,0,0-2.3,12.84A78.64,78.64,0,0,1,31.27,113.41Zm-2.51-41,3.87,4.87,1.78,2.23,1.81,2.28,38.43,48.3L64,151.71C54,137.9,40.34,118.44,31.35,104.36c-.78-1.21-1.53-2.4-2.23-3.53S27.69,98.51,27,97.42c-2.53-4.24-4.27-7.55-4.8-9.37C20.84,83.24,25.51,76.6,28.77,72.46Zm11.55.3A77.85,77.85,0,0,1,84.85,35.16a28.8,28.8,0,0,0-1.22,4.49l-.71,3.79,3.75-.89c3.64-.87,7.92-1.8,10.49-2.34l1.29,4.65L86.15,48,86,49.7c-1.06,10.75,6.17,20.52,14.4,28.55L77.12,125.18,38.43,76.57C39,75.29,39.65,74,40.32,72.76ZM95.82,27.29A23.65,23.65,0,0,1,104,22.16a19.29,19.29,0,0,1,2.29,4c.35.76.71,1.59,1.08,2.49s.64,1.59,1,2.45c2,5.31,4.19,12.18,6,19l-11.6,23.39c-6.4-6.45-11.79-13.9-11.85-21.62l13.75-3.46-3.91-14.1-2.29.47c-.06,0-4.3.89-8.83,1.91a24.12,24.12,0,0,1,1.56-3.39,24.82,24.82,0,0,1,1.95-3A25.45,25.45,0,0,1,95.82,27.29Zm29.25,5.38a24.82,24.82,0,0,0-5.89,7.67l-1.55,3.13c-1.23-4.26-2.57-8.47-4-12.25A77.38,77.38,0,0,1,125.08,32.67Zm62.48,68.76C181.8,90.25,173,73.79,165.06,60a24.82,24.82,0,0,0,1.21-4.62,78,78,0,0,1,18.26,31.22A79.22,79.22,0,0,1,187.55,101.44Z"/><path class="cls-1" d="M28.79,94.56a2.5,2.5,0,0,0,4.58,2l4-9.18a2.5,2.5,0,0,0-4.58-2l-1.33,3Z"/><path class="cls-1" d="M28.33,89.28l.83-1.92,3.16-7.27a2.5,2.5,0,0,0-4.58-2l-4,9.18a2.5,2.5,0,1,0,4.58,2Z"/><path class="cls-1" d="M33.51,101.36a2.5,2.5,0,1,0,4.58,2l4-9.18a2.5,2.5,0,0,0-4.58-2Z"/><path class="cls-1" d="M38.23,108.17a2.5,2.5,0,1,0,4.58,2l4-9.18a2.5,2.5,0,0,0-4.58-2Z"/><path class="cls-1" d="M43,115a2.5,2.5,0,1,0,4.58,2l4-9.18a2.5,2.5,0,0,0-4.58-2Z"/><path class="cls-1" d="M47.67,121.77a2.5,2.5,0,1,0,4.58,2l4-9.18a2.5,2.5,0,1,0-4.58-2Z"/><path class="cls-1" d="M52.39,128.58a2.5,2.5,0,1,0,4.58,2l4-9.18a2.5,2.5,0,0,0-4.58-2Z"/><path class="cls-1" d="M57.11,135.38a2.5,2.5,0,1,0,4.58,2l4-9.18a2.5,2.5,0,0,0-4.58-2Z"/><path class="cls-1" d="M61.82,142.19a2.5,2.5,0,1,0,4.58,2l4-9.18a2.5,2.5,0,0,0-4.58-2Z"/><path class="cls-1" d="M131.63,50.7l6,3-3,6A2.5,2.5,0,1,0,139.16,62l3-6L144.33,57l2.25,1.12,1.61.8a2.46,2.46,0,0,0,.7.21,2.48,2.48,0,0,0,2.47-3.84,2.47,2.47,0,0,0-1-.86l-1.11-.55-2.25-1.12-2.68-1.33,3-6a2.5,2.5,0,1,0-4.48-2.22l-3,6-6-3a2.5,2.5,0,1,0-2.22,4.48Z"/></g></g></svg>