<?xml version="1.0" encoding="utf-8"?>
<!-- Generator: Adobe Illustrator 19.2.1, SVG Export Plug-In . SVG Version: 6.00 Build 0)  -->
<svg version="1.1" id="Layer_1" xmlns="http://www.w3.org/2000/svg" xmlns:xlink="http://www.w3.org/1999/xlink" x="0px" y="0px"
	 viewBox="0 0 256 256" style="enable-background:new 0 0 256 256;" xml:space="preserve">
<style type="text/css">
	.st0{fill:none;stroke:#FFFFFF;stroke-width:8;stroke-miterlimit:10;}
	.st1{fill:none;stroke:#FFFFFF;stroke-width:8;stroke-linejoin:round;stroke-miterlimit:10;}
</style>
<circle class="st0" cx="128" cy="58.9" r="54.4"/>
<path class="st0" d="M217,131.9c-3.6-5.1-8.5-9-14.2-11.5c-7.6-3.3-15.8-6.1-24.5-8.3c-13.1,12.4-30.8,20-50.3,20s-37.1-7.6-50.3-20
	c-8.7,2.2-17,5-24.5,8.3c-5.7,2.5-10.6,6.4-14.2,11.5c-14.2,20.1-23,47.6-19.3,84.5C41.6,238,81.9,252.5,128,252.5
	s86.4-14.5,108.3-36.1C240.1,179.5,231.3,152,217,131.9z"/>
<path class="st1" d="M159.8,191.7c7.3-7.3,8.7-18.4,4-27.1l-13.4,13.4l-9.5-9.5l13.4-13.4c-8.7-4.6-19.8-3.3-27.1,4
	c-7,7-8.5,17.4-4.6,25.9l-25.2,22.1c-4.5,3.9-4.7,10.8-0.5,15s11.1,4,15-0.5l22.1-25.2C142.4,200.2,152.8,198.7,159.8,191.7z"/>
</svg>
