<?xml version="1.0" encoding="utf-8"?>
<!-- Generator: Adobe Illustrator 19.2.1, SVG Export Plug-In . SVG Version: 6.00 Build 0)  -->
<svg version="1.1" id="Layer_1" xmlns="http://www.w3.org/2000/svg" xmlns:xlink="http://www.w3.org/1999/xlink" x="0px" y="0px"
	 viewBox="0 0 256 256" style="enable-background:new 0 0 256 256;" xml:space="preserve">
<style type="text/css">
	.st0{fill:none;stroke:#FFFFFF;stroke-width:8;stroke-miterlimit:10;}
</style>
<circle class="st0" cx="128" cy="58.9" r="54.4"/>
<path class="st0" d="M217,131.9c-3.6-5.1-8.5-9-14.2-11.5c-7.6-3.3-15.8-6.1-24.5-8.3c-13.1,12.4-30.8,20-50.3,20s-37.1-7.6-50.3-20
	c-8.7,2.2-17,5-24.5,8.3c-5.7,2.5-10.6,6.4-14.2,11.5c-14.2,20.1-23,47.6-19.3,84.5C41.6,238,81.9,252.5,128,252.5
	s86.4-14.5,108.3-36.1C240.1,179.5,231.3,152,217,131.9z"/>
<path class="st0" d="M153,128c-19.5,16-62.5,77.8-25,112.2c37.8-35-5.5-96.2-25-112.2"/>
</svg>
