<svg xmlns="http://www.w3.org/2000/svg" viewBox="0 0 219.04 218.97"><defs><style>.cls-1{fill:#fff;}</style></defs><title>success</title><g id="Layer_2" data-name="Layer 2"><g id="Layer_1-2" data-name="Layer 1"><path class="cls-1" d="M160.94,12.79a109.49,109.49,0,1,0,45.31,148.08A109.63,109.63,0,0,0,160.94,12.79Zm-100.43,189a104.5,104.5,0,1,1,141.32-43.24A103.82,103.82,0,0,1,60.51,201.76Z"/><path class="cls-1" d="M189.31,85.08a83.58,83.58,0,0,0-11.39-23.4l3.57-7L168.1,47.74l-5.68-2.93-1-6.29L159.07,23.6l-14.92,2.28-6.31,1-4.51-4.52L122.66,11.65,111.92,22.27l-3.84,3.8-.69.68-3.24-.51-3.07-.49L86.19,23.4l-1,6.33A83.39,83.39,0,0,0,54.88,172.45l-.18.54.64-.13,3.12-.63,3.22-.65,32.76-6.65,17,22.93,1.82,2.46,1.77,2.39,3.58,4.84,1.76-5.37a83.36,83.36,0,0,0,69-107.08ZM122.06,186.85l21.35-65.09c-1,.43-1-3.15-2-2.78s-2,.31-3,.6l-21.56,67.2L96.57,159.38l-34.44,7,22-65.48c-.64-.79-2.43-.08-3-.9s-2.11-1.81-3,1.66L56.57,167.29a78.39,78.39,0,0,1,27.66-132l-.49,3-1,6.29L77,47.49,63.58,54.34l6.75,13.47,2.87,5.71L70.31,79.2,63.47,92.65l13.4,6.92,1.64.85,2.25,1.16,1.79.92.18,1.11.82,5.19,2.36,14.92,14.92-2.28,6.31-1,4.51,4.52,10.67,10.68L133,125l4.53-4.48.93.15,2.5.4,2.5.4.38.06,14.89,2.36L161.23,109l1-6.29L168,99.83,181.38,93l-6.75-13.47-2.87-5.71,2.89-5.68.68-1.33a78.73,78.73,0,0,1,9.2,19.76,78.36,78.36,0,0,1-62.47,100.3Zm52.72-130-.2.39c-.22-.28-.43-.56-.65-.83ZM120.07,21.25l2.57-2.54,2.55,2.56,8.29,8.29,2.61,2.61,3.4-.52,11.84-1.81,3.57-.55.56,3.57,1.24,7.84.54,3.44.56,3.55.06.39,1.32.68,8.39,4.34,4,2.06c.5,1.31.94,2.64,1.33,4,.09.3.16.6.24.89l-1.06,2.08-5.92,11.65,6.91,13.78,1.62,3.22-3.21,1.64-13.73,7-2.51,15.2-.59,3.57-3.58-.57-6-.95-2.5-.4-2.5-.4-4.22-.67-11,10.84-2.57,2.54-2.55-2.56-10.9-10.91-15.24,2.33-3.57.55-.56-3.57L87.09,99.23l-2.5-1.29-2.25-1.16-2.25-1.16L73.4,92.15l-3.22-1.66,1.64-3.22,7-13.73L71.9,59.76l-1.62-3.22,3.21-1.64,13.73-7,2.35-14.21.16-1q1.57-1.25,3.22-2.37l.94-.63,1.29.2,8.67,1.37,5.26.83,1.05-1,2.45-2.43L115,26.24Z"/><path class="cls-1" d="M105.19,192.76l-1.93-2.62-2-2.71-9.62-13-19.47,4-3.74.76-3.57.73L53,182.28a2.5,2.5,0,1,0,1,4.9l3.89-.79,13.54-2.75,4-.81,4.25-.86,9.86-2,4.74,6.42,2.17,2.93,2.1,2.84,9.91,13.41,2.31,3.12a2.5,2.5,0,1,0,4-3Z"/><path class="cls-1" d="M90.36,63.12a33.6,33.6,0,0,0-.88,17.93c.22,1,.49,2,.8,2.91s.71,2,1.14,3c.28.65.57,1.29.89,1.92a33.71,33.71,0,0,0,46.58,14.25c.94-.53,1.87-1.09,2.76-1.7s1.64-1.17,2.42-1.82A33.8,33.8,0,1,0,90.36,63.12ZM122.5,44.85A28.79,28.79,0,0,1,138.33,97.7a28.18,28.18,0,0,1-6.31,3.13A28.73,28.73,0,0,1,98.35,89.36,29.47,29.47,0,0,1,95.25,83,28.79,28.79,0,0,1,122.5,44.85Z"/></g></g></svg>