<?xml version="1.0" encoding="utf-8"?>
<!-- Generator: Adobe Illustrator 20.1.0, SVG Export Plug-In . SVG Version: 6.00 Build 0)  -->
<svg version="1.1" id="Layer_1" xmlns="http://www.w3.org/2000/svg" xmlns:xlink="http://www.w3.org/1999/xlink" x="0px" y="0px"
	 viewBox="0 0 250 250" style="enable-background:new 0 0 250 250;" xml:space="preserve">
<style type="text/css">
	.st0{fill:none;stroke:#FFFFFF;stroke-width:8;stroke-miterlimit:10;}
	.st1{fill:none;stroke:#FFFFFF;stroke-width:8;stroke-linecap:round;stroke-miterlimit:10;}
</style>
<circle class="st0" cx="84" cy="73" r="23"/>
<g>
	<path class="st0" d="M158,79V41.1c0-6.7-5.4-12.1-12.1-12.1H122v0c0-12.7-10.3-23-23-23H68C55.3,6,45,16.3,45,29v0H16.1
		C9.4,29,4,34.4,4,41.1v73.8c0,6.7,5.4,12.1,12.1,12.1H85"/>
	<path class="st0" d="M216,131c0,0,2-24-11-32h-47h-7.2c-8.2,0-14.8,6.6-14.8,14.8V127v104.2c0,8.2,6.6,14.8,14.8,14.8l80.4,0
		c8.2,0,14.8-6.6,14.8-14.8V131L216,131z"/>
</g>
<line class="st0" x1="93" y1="52" x2="205" y2="99"/>
<line class="st0" x1="64" y1="85" x2="137" y2="235"/>
<line class="st1" x1="157" y1="120" x2="213" y2="120"/>
<line class="st1" x1="157" y1="145" x2="223" y2="145"/>
<line class="st1" x1="157" y1="169" x2="223" y2="169"/>
<line class="st1" x1="157" y1="193" x2="223" y2="193"/>
<line class="st1" x1="157" y1="217" x2="223" y2="217"/>
</svg>
