<?xml version="1.0" encoding="utf-8"?>
<!-- Generator: Adobe Illustrator 19.2.1, SVG Export Plug-In . SVG Version: 6.00 Build 0)  -->
<svg version="1.1" id="Layer_1" xmlns="http://www.w3.org/2000/svg" xmlns:xlink="http://www.w3.org/1999/xlink" x="0px" y="0px"
	 viewBox="0 0 256 256" style="enable-background:new 0 0 256 256;" xml:space="preserve">
<style type="text/css">
	.st0{fill:none;stroke:#FFFFFF;stroke-width:8;stroke-miterlimit:10;}
	.st1{fill:#FFFFFF;}
</style>
<circle class="st0" cx="128" cy="128" r="124"/>
<g>
	<path class="st1" d="M120.8,156.8l-0.4-5.3c-1.2-10.9,2.4-22.8,12.5-34.9c9.1-10.7,14.1-18.6,14.1-27.7c0-10.3-6.5-17.2-19.2-17.4
		c-7.3,0-15.4,2.4-20.4,6.3L102.6,65c6.7-4.8,18.2-8.1,28.9-8.1c23.2,0,33.7,14.3,33.7,29.7c0,13.7-7.7,23.6-17.4,35.1
		c-8.9,10.5-12.1,19.4-11.5,29.7l0.2,5.3H120.8z M116.4,185c0-7.5,5.1-12.7,12.1-12.7c7.1,0,11.9,5.3,11.9,12.7
		c0,7.1-4.6,12.5-12.1,12.5C121.2,197.6,116.4,192.1,116.4,185z"/>
</g>
</svg>
