<svg xmlns="http://www.w3.org/2000svg" viewBox="0 0 218.97 219.04"><defs><style>.cls-1{fill:#fff;}</style></defs><title>problems</title><g id="Layer_2" data-name="Layer 2"><g id="Layer_1-2" data-name="Layer 1"><path class="cls-1" d="M160.87,12.79a109.5,109.5,0,1,0,45.31,148.08A109.62,109.62,0,0,0,160.87,12.79Zm40.89,145.73A104.5,104.5,0,1,1,109.66,5a104.48,104.48,0,0,1,92.1,153.53Z"/><path class="cls-1" d="M173.08,33.77l-2.35-3.29-7.91,14.88-2.41,4.53-1.56,2.94-18.12-9.63,2.41-4.53,2.35-4.41,7.13-13.42-4-.1a31,31,0,0,0-20.94,7.35A83.4,83.4,0,0,0,56.31,173.75a31.28,31.28,0,0,0,5,11.16l2.35,3.29,3.61-6.79L69.63,177l4.77-9,18.12,9.63-3.93,7.4-2.41,4.53-4.38,8.24,4,.1h.83a31,31,0,0,0,17.25-5.2c1.82.12,3.64.19,5.47.19a83.69,83.69,0,0,0,24.51-3.69A83.37,83.37,0,0,0,177.45,61.19,30.94,30.94,0,0,0,173.08,33.77Zm-44-.2A26,26,0,0,1,144.23,26l-3.32,6.25-2.36,4.45L134,45.28,160.92,59.6l3.31-6.22,2.44-4.59,4.51-8.49A26,26,0,0,1,171.83,62c-.31.72-.63,1.44-1,2.14A26,26,0,0,1,147.05,78l-1.55,0-3.87,7.29c-9.44,2.64-18,.64-22-2.34l7.75-14.57-.9-1.26a26,26,0,0,1-1.81-27.46A26.3,26.3,0,0,1,129.09,33.57Zm-19.47-2.48a78,78,0,0,1,13.9,1.25,31.51,31.51,0,0,0-3.25,4.92,30.93,30.93,0,0,0-.47,28.28C108,61.27,96.57,64.38,85.45,67.41c-13.74,3.74-26.75,7.28-41.1-1.57A78.55,78.55,0,0,1,109.62,31.09ZM40.25,72.69q.7-1.33,1.45-2.61c16.19,10,30.86,6,45.06,2.16,11.36-3.1,22.14-6,33-1.33L116,78.06a15.76,15.76,0,0,1-5.35-.37,15.64,15.64,0,0,0,2.89,6.05c.27.35.53.67.77,1h0a13.55,13.55,0,0,0,3,2.66c4.82,3.26,12.71,5,21.29,3.66a38.54,38.54,0,0,0,6.07-1.44c.09.06.17.14.25.2,3.41,2.47,4.67,6.24,3.8,11.49,0,.21-.09.43-.13.65-2.8,3-8.85,7.13-12.87,8.05a11.87,11.87,0,0,0,9.78.88,72.93,72.93,0,0,1-4.59,8.14c-2.88,2.61-10.23,5.36-13.57,5.47a8.51,8.51,0,0,0,7.12,3.48c-1.67,2.09-3.36,4.08-5,5.94l0-.05a23.17,23.17,0,0,1-9.41,2.89,30.93,30.93,0,0,1-4.22.21,11.42,11.42,0,0,0,6.12,4.58c-2.94,2.66-5.29,4.34-6.45,4.59h-.52a47.65,47.65,0,0,1-5.41-.33,86.91,86.91,0,0,1-20.42-5.3c-3-1.13-6.12-2.45-9.37-4-14.15-6.61-30.62-17-48.41-32.19A77.92,77.92,0,0,1,40.25,72.69Zm15.27,93.65a78.73,78.73,0,0,1-24.4-55.67,224.72,224.72,0,0,0,42,28.1,31.22,31.22,0,0,0-17.6,27.56Zm47,21.27a26,26,0,0,1-12.33,5.1l1-1.83,2.44-4.6,5.68-10.69L72.33,161.27l-6.93,13-2.17,4.08a26.13,26.13,0,0,1,16.1-36.65c10.64,4.8,20,7.56,27.74,8.69l.85,1.19a26.17,26.17,0,0,1-5.41,36Zm76.21-41.33a77.89,77.89,0,0,1-46.3,38.18,78.67,78.67,0,0,1-22.88,3.47,31.38,31.38,0,0,0,4.61-6.5,30.93,30.93,0,0,0-.68-30.4l1.46,0h.63c6.73-.1,32.59-27,37.53-46.41,2.74-10.77-1.4-16.41-5.83-19.34L148.49,83a31,31,0,0,0,26.64-16.32A78.46,78.46,0,0,1,178.72,146.28Z"/></g></g></svg>